<svg class="Trac_1" viewBox="3.375 10.314 77.414 47.139">
				<path id="Trac_1" d="M 80.15585327148438 10.42823886871338 L 60.13254165649414 30.82372856140137 C 59.98367691040039 30.97259140014648 59.98367691040039 31.19590759277344 60.13254165649414 31.34477806091309 L 74.1451416015625 46.26920700073242 C 75.09420013427734 47.21826171875 75.09420013427734 48.74420547485352 74.1451416015625 49.69327163696289 C 73.67991638183594 50.15849304199219 73.04721069335938 50.40040969848633 72.43309783935547 50.40040969848633 C 71.81900787353516 50.40040969848633 71.18629455566406 50.15849304199219 70.72107696533203 49.69327163696289 L 56.76431655883789 34.82466125488281 C 56.61543655395508 34.6757926940918 56.37351989746094 34.6757926940918 56.22464370727539 34.82466125488281 L 52.8192024230957 38.28593826293945 C 49.97201538085938 41.17033767700195 46.19438171386719 42.77070236206055 42.13761520385742 42.7893180847168 C 38.02500534057617 42.80792999267578 34.11711502075195 41.07728958129883 31.23271369934082 38.15567016601562 L 27.95752143859863 34.82466125488281 C 27.80865287780762 34.67578506469727 27.56673622131348 34.67578506469727 27.41786193847656 34.82466125488281 L 13.46108531951904 49.69326019287109 C 12.99586200714111 50.15848159790039 12.36315727233887 50.40039825439453 11.74905681610107 50.40039825439453 C 11.13495826721191 50.40039825439453 10.50225162506104 50.15848159790039 10.03702640533447 49.69326019287109 C 9.08796501159668 48.74419784545898 9.08796501159668 47.21826171875 10.03702640533447 46.26919937133789 L 24.04962921142578 31.34476661682129 C 24.17988967895508 31.19588851928711 24.17988967895508 30.97258758544922 24.04962921142578 30.8237190246582 L 4.007706642150879 10.42823886871338 C 3.76578950881958 10.18632221221924 3.374999761581421 10.35380172729492 3.374999761581421 10.68876361846924 L 3.374999761581421 51.49833679199219 C 3.374999761581421 54.77352142333984 6.054698944091797 57.45322799682617 9.329890251159668 57.45322799682617 L 74.83367156982422 57.45322799682617 C 78.10886383056641 57.45322799682617 80.78857421875 54.77352142333984 80.78857421875 51.49833679199219 L 80.78857421875 10.68876552581787 C 80.78857421875 10.35380172729492 80.37916564941406 10.20493125915527 80.15585327148438 10.42823886871338 Z">
				</path>
			</svg>